<?xml version="1.0" encoding="utf-8"?>
<!-- Generator: Adobe Illustrator 21.1.0, SVG Export Plug-In . SVG Version: 6.00 Build 0)  -->
<svg version="1.1" id="Layer_1" xmlns="http://www.w3.org/2000/svg" xmlns:xlink="http://www.w3.org/1999/xlink" x="0px" y="0px"
	 viewBox="0 0 672.1 91.3" style="enable-background:new 0 0 672.1 91.3;" xml:space="preserve">
<style type="text/css">
	.st0{clip-path:url(#SVGID_2_);fill:#0F2A3F;}
	.st1{clip-path:url(#SVGID_4_);fill:#0F2A3F;}
	.st2{clip-path:url(#SVGID_6_);fill:#0F2A3F;}
	.st3{clip-path:url(#SVGID_8_);fill:#0F2A3F;}
	.st4{clip-path:url(#SVGID_10_);fill:#0F2A3F;}
	.st5{clip-path:url(#SVGID_12_);fill:#0F2A3F;}
	.st6{fill:#0F2A3F;}
	.st7{clip-path:url(#SVGID_14_);fill:#0F2A3F;}
	.st8{clip-path:url(#SVGID_16_);fill:#0F2A3F;}
	.st9{clip-path:url(#SVGID_18_);fill:#0F2A3F;}
	.st10{clip-path:url(#SVGID_20_);fill:#0F2A3F;}
	.st11{clip-path:url(#SVGID_22_);fill:#0F2A3F;}
	.st12{clip-path:url(#SVGID_24_);fill:#0F2A3F;}
	.st13{clip-path:url(#SVGID_26_);fill:#0F2A3F;}
	.st14{fill:#FFDD00;}
</style>
<g>
	<g>
		<defs>
			<rect id="SVGID_1_" width="672.1" height="91.3"/>
		</defs>
		<clipPath id="SVGID_2_">
			<use xlink:href="#SVGID_1_"  style="overflow:visible;"/>
		</clipPath>
		<path class="st0" d="M131.9,4.1L143.8,29c3.1,6.6,5.6,13.2,6.8,17.7c-0.4-4.8-0.9-12.8-1-17.1l-0.3-25.5h11.9v62.3h-13.1
			l-10.7-23.9c-3.5-7.8-7.3-16.6-8.4-20.4c0.4,5.1,0.5,12.5,0.6,17.7l0.4,26.6h-12V4.1L131.9,4.1L131.9,4.1z"/>
	</g>
	<g>
		<defs>
			<rect id="SVGID_3_" width="672.1" height="91.3"/>
		</defs>
		<clipPath id="SVGID_4_">
			<use xlink:href="#SVGID_3_"  style="overflow:visible;"/>
		</clipPath>
		<path class="st1" d="M184.5,19.4v47h-12V21.3L184.5,19.4z M185.9,7.8c0,4.1-3.3,7.4-7.4,7.4c-4,0-7.4-3.3-7.4-7.4s3.4-7.4,7.5-7.4
			C182.7,0.4,185.9,3.7,185.9,7.8"/>
	</g>
	<g>
		<defs>
			<rect id="SVGID_5_" width="672.1" height="91.3"/>
		</defs>
		<clipPath id="SVGID_6_">
			<use xlink:href="#SVGID_5_"  style="overflow:visible;"/>
		</clipPath>
		<path class="st2" d="M203.9,19.7c0.8,1.3,1.2,2.3,1.6,4.7c3.1-3,7-4.7,11.2-4.7c3.8,0,6.9,1.3,9.3,3.8c0.6,0.6,1.3,1.4,1.8,2.2
			c4.2-4.3,8-6,13-6c3.6,0,7,1.1,9.1,2.9c2.6,2.2,3.4,4.9,3.4,11.2v32.6h-11.7V36.1c0-5.5-0.6-6.5-3.8-6.5c-2.2,0-5.4,1.5-8,3.9v33
			h-11.4V36.6c0-5.7-0.8-7.1-4.1-7.1c-2.2,0-5.3,1.2-7.9,3.5v33.5h-11.8v-32c0-6.6-0.4-9.5-1.7-11.7L203.9,19.7z"/>
	</g>
	<g>
		<defs>
			<rect id="SVGID_7_" width="672.1" height="91.3"/>
		</defs>
		<clipPath id="SVGID_8_">
			<use xlink:href="#SVGID_7_"  style="overflow:visible;"/>
		</clipPath>
		<path class="st3" d="M275.6,54.1c1.6,1.4,3.5,3,6.7,3c3,0,4.8-1.2,5.8-3.6c1.1-2.5,1.3-4.9,1.3-10.6c0-4.1-0.1-5.8-0.5-7.8
			c-0.9-3.9-3.4-5.8-6.5-5.8s-5.3,2-6.8,3.7V54.1z M275.4,8.1V19c0,1.3-0.1,3.3-0.3,4c2.3-2.5,5.6-3.7,9.8-3.7
			c11.2,0,18.2,9,18.2,23.3c0,9.3-2.9,16.6-8.5,21.1c-3.1,2.5-6.3,3.6-10,3.6c-4.5,0-7.6-1.3-10.2-4.2c-0.4,1.6-0.4,2.1-1.3,3.3
			h-10.8c0.9-2.1,1.2-3.4,1.2-9.8V14.1c0-5.6-0.2-8.7-0.8-11.3L275,0C275.3,3.1,275.4,5,275.4,8.1"/>
	</g>
	<g>
		<defs>
			<rect id="SVGID_9_" width="672.1" height="91.3"/>
		</defs>
		<clipPath id="SVGID_10_">
			<use xlink:href="#SVGID_9_"  style="overflow:visible;"/>
		</clipPath>
		<path class="st4" d="M321.9,19.3v29.5c0,4.1,0.4,6.3,1,7.5c0.6,1.3,2.4,2.2,4.2,2.2c3,0,6.5-2.2,7.4-4.4V21.8l11.5-2.4v35.1
			c0,3.1,1,6.2,2.8,8.3l-8.5,4.8c-1.5-1.1-2.8-2.6-3.6-4.5c-3,2.9-7.3,4.4-12.1,4.4c-6.5,0-12-3-13.5-7.4c-0.7-2.1-1-4.5-1-9.1V21.6
			L321.9,19.3z"/>
	</g>
	<g>
		<defs>
			<rect id="SVGID_11_" width="672.1" height="91.3"/>
		</defs>
		<clipPath id="SVGID_12_">
			<use xlink:href="#SVGID_11_"  style="overflow:visible;"/>
		</clipPath>
		<path class="st5" d="M385.5,31.6c-4.6-2.3-7.9-3.3-11.3-3.3c-3.5,0-5.8,1.8-5.8,4.5c0,2.3,1.5,3.6,5.7,4.7l5.6,1.4
			c5.6,1.4,7.5,3.1,9.1,5.2c1.7,2.2,2.5,4.8,2.5,7.8c0,9.5-7.9,16-19.6,16c-5.7,0-11.8-1.8-18.6-5.3l4.3-8.8
			c3.7,2.2,10,5.2,15.2,5.2c3.4,0,6.1-2.2,6.1-5.2c0-3.1-2.2-4.8-7.1-5.6l-5.4-1c-3-0.5-6.8-2.7-8.4-4.7s-2.6-5.3-2.6-8.3
			c0-9,7.1-15,17.8-15c7.4,0,12.2,2.2,16.4,4.3L385.5,31.6z"/>
	</g>
</g>
<polygon class="st6" points="399.6,4.9 406.8,4.9 406.8,30.6 432.7,30.6 432.7,4.9 440.1,4.9 440.1,66.4 432.7,66.4 432.7,36.6 
	406.8,36.6 406.8,66.4 399.6,66.4 "/>
<g>
	<g>
		<defs>
			<rect id="SVGID_13_" width="672.1" height="91.3"/>
		</defs>
		<clipPath id="SVGID_14_">
			<use xlink:href="#SVGID_13_"  style="overflow:visible;"/>
		</clipPath>
		<path class="st7" d="M470.4,26.1c-3.9,0-7.6,1.9-9.1,4.8c-1.4,2.8-2.2,6.4-2.2,11.7c0,6.3,1.1,11.8,2.8,14.6
			c1.6,2.7,5.2,4.5,9.1,4.5c4.7,0,8.2-2.4,9.7-6.7c1-2.8,1.3-5.3,1.3-9.7c0-6.3-0.6-10.5-2.1-13.5C478,27.9,474.1,26.1,470.4,26.1
			 M470.5,20.4c7.4,0,12.3,3.4,15.3,7.8c2.8,4,4.1,9.3,4.1,16.6c0,14.9-8,22.8-19.2,22.8c-12.3,0-19.3-9.1-19.3-23.8
			C451.5,29.3,458.7,20.4,470.5,20.4"/>
	</g>
	<g>
		<defs>
			<rect id="SVGID_15_" width="672.1" height="91.3"/>
		</defs>
		<clipPath id="SVGID_16_">
			<use xlink:href="#SVGID_15_"  style="overflow:visible;"/>
		</clipPath>
		<path class="st8" d="M527.7,23.6l-2.6,5.2c-3.9-1.9-7.3-3.2-11.2-3.2c-5.1,0-8.4,3-8.4,7.4c0,3.4,1.7,5.5,6.5,6.5l5.9,1.3
			c8.1,1.7,11.9,5.8,11.9,12.5c0,8.7-6.8,14.6-16.9,14.6c-5.7,0-11.8-1.7-16.4-4.5l2.7-5.2c4.6,2.8,9.2,4.2,14.2,4.2
			c5.5,0,9.1-3,9.1-7.7c0-4-2.2-6.3-7.4-7.4l-5.6-1.2c-7.4-1.5-11.3-6.1-11.3-12.3c0-8.1,6.5-13.7,15.9-13.7
			C518.8,20,524,21.5,527.7,23.6"/>
	</g>
	<g>
		<defs>
			<rect id="SVGID_17_" width="672.1" height="91.3"/>
		</defs>
		<clipPath id="SVGID_18_">
			<use xlink:href="#SVGID_17_"  style="overflow:visible;"/>
		</clipPath>
		<path class="st9" d="M559.7,21.7l-2.2,5.3h-9.3v28.8c0,4.9,1.3,6.6,5.7,6.6c2,0,3.1-0.3,4.4-0.9l1,4.5c-2.2,1.2-4.8,1.8-7.9,1.8
			c-2.3,0-4.1-0.5-5.8-1.3c-3.1-1.5-4.3-4.4-4.3-8.9V27h-5.8v-5.3h5.8c0-4.3,0.7-11.3,0.7-11.3l7.4-1.6c0,0-0.9,7-0.9,12.9H559.7z"
			/>
	</g>
	<g>
		<defs>
			<rect id="SVGID_19_" width="672.1" height="91.3"/>
		</defs>
		<clipPath id="SVGID_20_">
			<use xlink:href="#SVGID_19_"  style="overflow:visible;"/>
		</clipPath>
		<path class="st10" d="M568.1,21.9l7.3-1.2v45.6h-7.3V21.9z M571.8,2.5c3,0,5.5,2.4,5.5,5.5c0,3-2.4,5.5-5.5,5.5
			c-3,0-5.5-2.4-5.5-5.4C566.4,5,568.8,2.5,571.8,2.5"/>
	</g>
	<g>
		<defs>
			<rect id="SVGID_21_" width="672.1" height="91.3"/>
		</defs>
		<clipPath id="SVGID_22_">
			<use xlink:href="#SVGID_21_"  style="overflow:visible;"/>
		</clipPath>
		<path class="st11" d="M586.6,22.6l6.8-1.9c0,0,1.6,3.3,1.6,7c4.7-4.7,9.3-6.9,14.1-6.9s9.1,2.6,10.9,6.5c0.7,1.6,1.1,3.4,1.1,5.2
			v33.9H614V36.2c0-4.8-0.4-5.9-1.6-7.4c-1-1.2-2.9-1.9-4.9-1.9c-3.6,0-9.2,2.9-12.4,6.3v33.3h-6.8V32
			C588.3,25.6,586.6,22.6,586.6,22.6"/>
	</g>
	<g>
		<defs>
			<rect id="SVGID_23_" width="672.1" height="91.3"/>
		</defs>
		<clipPath id="SVGID_24_">
			<use xlink:href="#SVGID_23_"  style="overflow:visible;"/>
		</clipPath>
		<path class="st12" d="M647.8,26.8c-5.6,0-8.4,2.9-8.4,9.1c0,5.7,3,8.7,8.6,8.7c5.4,0,8.1-3,8.1-9
			C656.1,29.5,653.7,26.8,647.8,26.8 M667.8,21.4l4.3,4.3c-2.8,2-4.8,2.7-7.5,2.7c-1.2,0-2.2-0.2-3-0.5c1.8,2.2,2.7,4.8,2.7,7.6
			c0,5-2.5,9.7-6.6,12.3c-2.2,1.4-5.1,2-8.3,2c-6,2.2-8.1,3.7-8.1,5.2c0,1.3,1.3,2.2,3.6,2.2h7.2c5.2,0,8.1,0.6,10.8,2.5
			c3.5,2.4,4.9,5.6,4.9,9.4c0,9.7-6.9,14.1-17.8,14.1c-14,0-19.4-5-19.4-11.4c0-1.6,0.3-3,0.9-4.8l7.4-0.6c-0.6,1-1.3,2.6-1.3,4
			c0,2.3,1,4.2,2.6,5.2c2.2,1.3,5.5,2.1,9.1,2.1c6.9,0,10.9-2.2,10.9-7.8c0-2.4-0.8-4.3-2.4-5.4c-1.7-1.2-4.4-1.6-8.8-1.6
			c-1.8,0-5.5,0.1-6.9,0.1c-5.3,0-8.4-2.4-8.4-6.5c0-3.6,2-5.7,8.1-7.6c-6-1.9-10-7-10-12.9c0-9,6.7-15.1,16.5-15.1
			c6.8,0,8.2,2.5,13.6,2.5C664,23.4,665.7,22.8,667.8,21.4"/>
	</g>
	<g>
		<defs>
			<rect id="SVGID_25_" width="672.1" height="91.3"/>
		</defs>
		<clipPath id="SVGID_26_">
			<use xlink:href="#SVGID_25_"  style="overflow:visible;"/>
		</clipPath>
		<path class="st13" d="M81.6,26.8c-0.7,0-1.4,0-2,0.1C76.9,13.7,65.2,3.7,51.1,3.7c-10.7,0-20,5.7-25,14.3
			c-0.8-0.1-1.5-0.1-2.3-0.1C10.7,17.9,0,28.5,0,41.7c0,13.1,10.7,23.8,23.8,23.8c0.7,0,2.1,0,3.9,0l3.8-8h-7.7
			c-8.7,0-15.7-7.1-15.7-15.7c0-8.7,7-15.7,15.7-15.7c1.2,0,2.4,0.2,3.6,0.4l3.2,0.8l1.4-3c3.3-7.3,10.6-12.4,19.1-12.4
			c11.3,0,20.6,9,21,20.2l0.2,5.6l5.2-2c1.3-0.5,2.6-0.8,4-0.8l0,0c6.2,0,11.3,5.1,11.3,11.3c0,6.2-5.1,11.3-11.3,11.3H57.1l-6.6,8
			c13.5,0,27.6,0,31,0c10.7,0,19.3-8.7,19.3-19.3C100.9,35.5,92.3,26.8,81.6,26.8"/>
	</g>
</g>
<polygon class="st14" points="43.2,38 30.4,65.6 38.4,65.6 26.3,91.3 54.1,57.5 46,57.5 56.4,38 "/>
</svg>
